HIERARCHY
ROOT hip
{
	OFFSET 0.000000 0.000000 0.000000 
	CHANNELS 6 Xposition Yposition Zposition Xrotation Zrotation Yrotation
	JOINT abdomen
	{
		OFFSET 0.000000 3.402643 0.000000 
		CHANNELS 3 Xrotation Zrotation Yrotation
		JOINT chest
		{
			OFFSET 0.000000 8.438565 -0.680529 
			CHANNELS 3 Xrotation Zrotation Yrotation
			JOINT neck
			{
				OFFSET 0.000000 10.207942 -0.272212 
				CHANNELS 3 Xrotation Zrotation Yrotation
				JOINT head
				{
					OFFSET 0.000000 3.130431 0.000000 
					CHANNELS 3 Xrotation Zrotation Yrotation
					End Site
					{
						OFFSET 0.000000 3.130435 0.000000 
					}
				}
			}
			JOINT lCollar
			{
				OFFSET 3.470700 6.669187 -0.816635 
				CHANNELS 3 Yrotation Zrotation Xrotation
				JOINT lShldr
				{
					OFFSET 3.198488 0.000000 0.000000 
					CHANNELS 3 Zrotation Yrotation Xrotation
					JOINT lForeArm
					{
						OFFSET 10.139888 0.000000 0.000000 
						CHANNELS 3 Yrotation Zrotation Xrotation
						JOINT lHand
						{
							OFFSET 8.370511 0.000000 0.000000 
							CHANNELS 3 Zrotation Yrotation Xrotation
							End Site
							{
								OFFSET 4.083176 0.000000 0.000000 
							}
						}
					}
				}
			}
			JOINT rCollar
			{
				OFFSET -3.470700 6.669187 -0.816635 
				CHANNELS 3 Yrotation Zrotation Xrotation
				JOINT rShldr
				{
					OFFSET -3.198488 0.000000 0.000000 
					CHANNELS 3 Zrotation Yrotation Xrotation
					JOINT rForeArm
					{
						OFFSET -10.139888 0.000000 0.000000 
						CHANNELS 3 Yrotation Zrotation Xrotation
						JOINT rHand
						{
							OFFSET -8.370511 0.000000 0.000000 
							CHANNELS 3 Zrotation Yrotation Xrotation
							End Site
							{
								OFFSET -4.083176 0.000000 0.000000 
							}
						}
					}
				}
			}
		}
	}
	JOINT lThigh
	{
		OFFSET 5.308129 -1.633274 1.361059 
		CHANNELS 3 Xrotation Zrotation Yrotation
		JOINT lShin
		{
			OFFSET -2.041588 -20.007561 0.000000 
			CHANNELS 3 Xrotation Zrotation Yrotation
			JOINT lFoot
			{
				OFFSET 0.000000 -19.190928 -1.224953 
				CHANNELS 3 Xrotation Yrotation Zrotation
				End Site
				{
					OFFSET 0.000000 -2.449906 4.627600 
				}
			}
		}
	}
	JOINT rThigh
	{
		OFFSET -5.308129 -1.633274 1.361059 
		CHANNELS 3 Xrotation Zrotation Yrotation
		JOINT rShin
		{
			OFFSET 2.041588 -20.007561 0.000000 
			CHANNELS 3 Xrotation Zrotation Yrotation
			JOINT rFoot
			{
				OFFSET 0.000000 -19.190928 -1.224953 
				CHANNELS 3 Xrotation Yrotation Zrotation
				End Site
				{
					OFFSET 0.000000 -2.449906 4.627600 
				}
			}
		}
	}
}
MOTION
Frames: 6
Frame Time: 0.016667
-3.306031 42.511734 130.316788 5.943325 14.922978 -12.496518 4.854509 1.157942 -6.288203 1.147663 9.226697 -3.282005 -12.645178 -3.278018 0.873940 11.373801 11.040648 -0.987689 2.239031 1.334920 0.039219 -75.568764 5.665922 -165.639099 92.214302 -2.479031 3.414098 1.653298 -3.397819 -168.644150 -3.938843 -2.982474 0.045583 -93.420227 161.287231 2.400756 -122.661507 2.381874 3.931784 -1.663062 3.397222 -164.025009 36.574024 -5.476394 2.043256 0.010130 0.000249 0.009384 19.407026 12.749198 -4.472488 -54.045723 0.820237 -0.706123 57.876858 -0.003115 0.025821 -9.764873 -0.915654 -0.169790 
-3.982136 42.792732 134.309570 5.833356 16.384167 -13.454886 4.718115 1.352824 -6.880346 2.219307 9.709648 -3.491483 -12.645178 -3.278018 0.873940 11.008107 10.725698 -0.247622 2.239031 1.334920 0.039219 -74.024597 9.302934 -165.205139 92.908585 -2.478636 3.446116 1.653298 -3.397819 -170.021103 -3.938843 -2.982474 0.045583 -95.320824 157.035278 7.260981 -126.081192 2.353411 3.986892 -1.653298 3.397818 -153.643570 40.739838 -7.479395 1.992035 0.010501 0.000231 0.019145 21.142620 10.853501 -4.195833 -52.379311 0.166295 -0.084383 46.069386 -0.016804 0.020678 -9.440313 0.510458 0.092385 
-4.715280 43.011395 138.084641 5.575402 18.288034 -13.264765 4.161337 1.363585 -7.996298 2.343143 10.391885 -4.020366 -12.645178 -3.278018 0.873940 11.574438 8.981606 0.650141 2.239031 1.334920 0.039219 -72.824150 13.588243 -164.842545 91.383713 -2.477790 3.399107 1.653298 -3.397819 -170.148056 -3.938843 -2.982474 0.045583 81.276726 26.604441 -166.910492 -128.553085 2.330815 4.025622 -1.653298 3.397818 -146.338882 37.594574 -8.797805 1.668094 13.095365 -0.012130 -0.003577 17.549379 8.270645 -2.614330 -50.896645 -1.620809 -0.200065 36.549931 -0.015589 0.018866 -7.682237 0.235735 0.032946 
-5.414262 43.016655 141.853119 5.401824 19.908445 -13.934161 4.326334 0.496628 -8.370549 3.352756 9.095994 -4.107001 -12.645178 -3.278018 0.873940 11.547955 8.376092 1.545215 2.239031 1.334920 0.039219 -70.571266 16.888533 -163.920975 87.885475 -2.470179 3.336221 1.653298 -3.397819 -168.956650 -3.938843 -2.982474 0.045583 79.435356 32.223125 -160.738953 -130.165146 2.315187 4.050342 -1.653298 3.397818 -144.454117 34.973930 -10.075092 3.572710 24.686975 -0.018103 0.018749 14.934419 5.819353 -1.579212 -50.050304 -2.899926 -1.367402 30.578928 -0.014848 0.006501 -5.363396 -1.016353 -0.090024 
-6.043293 42.823757 145.583466 4.556030 20.477610 -15.208219 4.102505 1.227317 -8.388351 3.324260 10.217518 -4.125447 -12.645178 -3.278018 0.873940 11.676181 8.396246 2.598554 2.239031 1.334920 0.039219 -72.206535 20.400148 -163.041061 83.156075 -2.453816 3.252167 1.653298 -3.397819 -169.083603 -3.938843 -2.982474 0.045583 74.547928 38.496319 -154.113937 -131.044449 2.306371 4.063637 -1.653298 3.397818 -146.172882 32.836998 -10.368502 6.907476 36.482742 -0.015793 0.003393 13.198485 5.335175 -1.264042 -48.593182 -3.476449 -3.860461 28.057634 0.000361 0.005520 -3.165991 -3.728317 -0.214261 
-6.614365 42.471371 149.273041 3.637657 20.001894 -16.252571 3.841257 2.396953 -7.993137 2.580991 11.482790 -3.996204 -12.645178 -3.278018 0.873940 11.972084 8.456121 3.363353 2.239031 1.334920 0.039219 -74.777130 23.138624 -161.383026 77.635307 -2.426024 3.155735 1.653298 -3.397819 -170.978134 -3.938843 -2.982474 0.045583 68.181282 44.768921 -149.204819 -130.555939 2.311294 4.056267 -1.653298 3.397818 -146.309586 30.734472 -8.872430 11.181520 48.251549 -0.033986 0.024842 11.243924 7.399290 -1.469360 -46.248280 -3.515465 -5.994383 27.960054 -0.009863 -0.000741 -1.619627 -5.842361 -0.159314 
